<svg id="Layer_1" data-name="Layer 1" xmlns="http://www.w3.org/2000/svg" viewBox="0 0 263.04 199.41"><defs><style>.cls-1{fill:#ce1e55;}.cls-2{fill:#e2215b;}.cls-3{fill:#079b7f;}.cls-4{fill:#00c9a2;}.cls-5{fill:#f2b700;}.cls-6{fill:#daa727;}.cls-7{fill:#0fa3cf;}.cls-8{fill:#13b3e2;}.cls-9{fill:#16152b;}.cls-10{fill:none;}</style></defs><path class="cls-1" d="M87.74,27.21A27.2,27.2,0,0,1,134.18,8L95.7,46.45a27.15,27.15,0,0,1-8-19.24"/><path class="cls-2" d="M114.88,27.24A27.21,27.21,0,0,1,76.41,65.72Z"/><path class="cls-3" d="M95.61,112.13A27.2,27.2,0,0,1,76.37,65.69l38.48,38.47a27.14,27.14,0,0,1-19.24,8"/><path class="cls-4" d="M95.87,85.16a27.21,27.21,0,1,1,38.48,38.48Z"/><path class="cls-5" d="M145.67,85.18a27.2,27.2,0,0,1,46.44-19.24l-38.47,38.48a27.1,27.1,0,0,1-8-19.24"/><path class="cls-6" d="M172.85,85.16a27.21,27.21,0,1,1-38.48,38.47Z"/><path class="cls-7" d="M172.85,19.51A27.2,27.2,0,0,1,192.09,66L153.61,27.48a27.1,27.1,0,0,1,19.24-8"/><path class="cls-8" d="M172.65,46.45A27.21,27.21,0,1,1,134.17,8Z"/><path class="cls-9" d="M37.57,170.08A1.67,1.67,0,0,1,36,171.77a1.65,1.65,0,0,1-1.61-1.69V152.16a1.69,1.69,0,0,1,.64-1.42,1.56,1.56,0,0,1,2.22.37l9.45,13.76V152.19a1.64,1.64,0,0,1,1.58-1.67,1.66,1.66,0,0,1,1.61,1.67v17.89a1.67,1.67,0,0,1-1.61,1.69,1.58,1.58,0,0,1-1.2-.61.7.7,0,0,1-.14-.19L37.57,157.3Z"/><path class="cls-9" d="M62.66,170.08V151.91a1.63,1.63,0,0,1,1.61-1.69h9.56a1.67,1.67,0,0,1,1.61,1.69,1.69,1.69,0,0,1-1.61,1.72H65.91v5.64h6.81a1.71,1.71,0,0,1,0,3.42H65.91v5.66h7.92a1.71,1.71,0,0,1,0,3.42H64.36c-.06,0-.06,0-.06,0l0,0A1.65,1.65,0,0,1,62.66,170.08Z"/><path class="cls-9" d="M100.19,153.63H95.54v16.45a1.61,1.61,0,1,1-3.22,0V153.63H87.7a1.67,1.67,0,0,1-1.61-1.72,1.63,1.63,0,0,1,1.61-1.69h12.49a1.65,1.65,0,0,1,1.6,1.69A1.69,1.69,0,0,1,100.19,153.63Z"/><path class="cls-9" d="M141.25,152.77l-7.16,17.95a.75.75,0,0,1-.15.28l0,0a.83.83,0,0,1-.15.19c0,.06,0,.06,0,.09a.91.91,0,0,0-.21.15h0c-.09.06-.14.16-.26.19h0a0,0,0,0,0,0,0,.78.78,0,0,0-.23.06h-.06a.92.92,0,0,1-.3,0,.8.8,0,0,1-.26,0h-.09a.63.63,0,0,0-.2-.06s0,0-.06,0a.59.59,0,0,1-.26-.19h0c-.09-.06-.15-.12-.21-.15a.23.23,0,0,1-.06-.09,1.86,1.86,0,0,0-.11-.19c-.06,0-.06,0-.06,0a.72.72,0,0,1-.12-.28l-3.83-9.54-3.83,9.54a2,2,0,0,1-.12.28,0,0,0,0,0,0,0l-.17.19c0,.06,0,.06,0,.09a.8.8,0,0,0-.18.15h-.06c-.09.06-.17.16-.23.19h0a0,0,0,0,0,0,0,.4.4,0,0,0-.23.06h-.09a.8.8,0,0,1-.26,0,1,1,0,0,1-.3,0h-.09a.63.63,0,0,0-.2-.06s0,0-.06,0a.83.83,0,0,1-.26-.19h0c-.09-.06-.12-.12-.21-.15l0-.09c-.06-.06-.09-.13-.15-.19v0a1.77,1.77,0,0,1-.15-.28l-7.19-17.95a1.69,1.69,0,0,1,.88-2.18,1.53,1.53,0,0,1,2.07.89L122,165.74l3.77-9.46a1.6,1.6,0,0,1,1.52-1,1.66,1.66,0,0,1,1.52,1l3.77,9.46,5.71-14.26a1.59,1.59,0,0,1,2.13-.89A1.69,1.69,0,0,1,141.25,152.77Z"/><path class="cls-9" d="M169.3,152.9a11.73,11.73,0,0,1,0,15.58,9.38,9.38,0,0,1-7,3.29,9.67,9.67,0,0,1-7.17-3.29,11.94,11.94,0,0,1,0-15.58,9.54,9.54,0,0,1,7.17-3.3A9.26,9.26,0,0,1,169.3,152.9Zm-.38,7.79a8.19,8.19,0,0,0-2-5.39,6.15,6.15,0,0,0-4.62-2.19,6.23,6.23,0,0,0-4.74,2.19,8,8,0,0,0-2,5.39,7.9,7.9,0,0,0,2,5.35,6.25,6.25,0,0,0,4.74,2.22,6.18,6.18,0,0,0,4.62-2.22A8,8,0,0,0,168.92,160.69Z"/><path class="cls-9" d="M199.22,169.22a1.72,1.72,0,0,1-1,2.15,2.54,2.54,0,0,1-.65.09h0a2,2,0,0,1-1.15-.34,2.86,2.86,0,0,1-.93-1.07,8.7,8.7,0,0,1-.62-3.7,2.66,2.66,0,0,0-.35-1.32,2.75,2.75,0,0,0-.87-.9,5.42,5.42,0,0,0-1.64-.73h-3.45v6.68a1.68,1.68,0,0,1-1.64,1.69,1.65,1.65,0,0,1-1.61-1.69V151.91a1.63,1.63,0,0,1,1.61-1.69h5.23a6.42,6.42,0,0,1,6.26,6.62,6.66,6.66,0,0,1-2.28,5,4.57,4.57,0,0,1,1,1.14,6.07,6.07,0,0,1,1,3.32,8,8,0,0,0,.12,1.82A1.58,1.58,0,0,1,199.22,169.22Zm-4.09-12.38a3.11,3.11,0,0,0-3-3.21h-3.59V160h3.59A3.09,3.09,0,0,0,195.13,156.84Z"/><path class="cls-9" d="M211.62,170.08v-18a1.61,1.61,0,1,1,3.22,0v8.84l9.48-10a1.54,1.54,0,0,1,2.28,0,1.82,1.82,0,0,1,0,2.41L220.16,160l6.5,9a1.71,1.71,0,0,1-.24,2.37,1.42,1.42,0,0,1-1,.4,1.54,1.54,0,0,1-1.2-.61l-6.32-8.72-3,3.26v4.38a1.61,1.61,0,1,1-3.22,0Z"/><path class="cls-9" d="M115.65,193a6.54,6.54,0,0,1,6.52-6.47,6.74,6.74,0,0,1,4.08,1.42,1.41,1.41,0,0,1,.28,1.9,1.35,1.35,0,0,1-1.92.26,4.09,4.09,0,0,0-2.44-.82,3.7,3.7,0,1,0,0,7.4,4.17,4.17,0,0,0,2.44-.83,1.39,1.39,0,0,1,1.92.29,1.42,1.42,0,0,1-.28,1.9,7,7,0,0,1-4.08,1.37A6.52,6.52,0,0,1,115.65,193Z"/><path class="cls-9" d="M147.53,193v5a1.38,1.38,0,0,1-1.36,1.37,1.41,1.41,0,0,1-1.34-1.11,5.77,5.77,0,0,1-3.41,1.11,5.94,5.94,0,0,1-4.36-1.88,6.61,6.61,0,0,1-1.75-4.54,6.5,6.5,0,0,1,1.75-4.54,5.81,5.81,0,0,1,7.77-.8,1.41,1.41,0,0,1,1.34-1.13,1.38,1.38,0,0,1,1.36,1.39Zm-2.72,0a3.85,3.85,0,0,0-1-2.66,3.19,3.19,0,0,0-2.39-1.05,3.11,3.11,0,0,0-2.39,1.05,3.84,3.84,0,0,0-1,2.66,3.91,3.91,0,0,0,1,2.66,3.25,3.25,0,0,0,2.39,1,3.33,3.33,0,0,0,2.39-1A3.93,3.93,0,0,0,144.81,193Z"/><path class="cls-9" d="M168.47,191.88V198a1.35,1.35,0,0,1-1.33,1.37,1.39,1.39,0,0,1-1.36-1.37v-6.16a2.64,2.64,0,0,0-2.67-2.6,2.57,2.57,0,0,0-2.57,2.6V198a.52.52,0,0,1,0,.26,1.4,1.4,0,0,1-1.36,1.11,1.36,1.36,0,0,1-1.36-1.37V187.88a1.35,1.35,0,0,1,1.36-1.36,1.39,1.39,0,0,1,1.26.8,5.11,5.11,0,0,1,2.72-.8A5.38,5.38,0,0,1,168.47,191.88Z"/><path class="cls-9" d="M188.6,188.58l-4.21,10a1.3,1.3,0,0,1-.1.18s0,0,0,0l-.15.18a0,0,0,0,1,0,0,.71.71,0,0,1-.15.15,0,0,0,0,0,0,0,.49.49,0,0,1-.18.13h-.05v0a.47.47,0,0,0-.21.06h-.05a1.19,1.19,0,0,1-.25,0,1.11,1.11,0,0,1-.23,0h-.06a.47.47,0,0,0-.2-.06v0h0c-.08,0-.13-.08-.23-.13a0,0,0,0,0,0,0,.71.71,0,0,1-.15-.15s0,0-.05,0a1,1,0,0,0-.13-.18s0,0,0,0a.32.32,0,0,1-.1-.18l-4.16-10a1.33,1.33,0,1,1,2.46-1l3,7,3-7a1.33,1.33,0,1,1,2.47,1Z"/><path class="cls-9" d="M209.08,193v5a1.36,1.36,0,0,1-2.69.26,5.8,5.8,0,0,1-3.42,1.11,5.94,5.94,0,0,1-4.36-1.88,6.66,6.66,0,0,1-1.75-4.54,6.55,6.55,0,0,1,1.75-4.54,5.83,5.83,0,0,1,7.78-.8,1.35,1.35,0,0,1,2.69.26Zm-2.72,0a3.81,3.81,0,0,0-1-2.66,3.19,3.19,0,0,0-2.39-1.05,3.09,3.09,0,0,0-2.38,1.05,3.8,3.8,0,0,0-1,2.66,3.87,3.87,0,0,0,1,2.66,3.23,3.23,0,0,0,2.38,1,3.33,3.33,0,0,0,2.39-1A3.88,3.88,0,0,0,206.36,193Z"/><path class="cls-9" d="M219,195.72a1.34,1.34,0,0,1,1.93-.2,4.71,4.71,0,0,0,2.82,1.13,3.39,3.39,0,0,0,1.75-.49,1.06,1.06,0,0,0,.46-.77.4.4,0,0,0-.08-.26c0-.08-.13-.18-.33-.31a5.9,5.9,0,0,0-2-.72h0a9.85,9.85,0,0,1-2.23-.67,4.25,4.25,0,0,1-1.77-1.5,3,3,0,0,1-.44-1.62,3.65,3.65,0,0,1,1.51-2.84,5.51,5.51,0,0,1,3.16-.95,6.56,6.56,0,0,1,3.85,1.42,1.41,1.41,0,0,1,.41,1.9,1.36,1.36,0,0,1-1.9.37,4.33,4.33,0,0,0-2.36-1,2.59,2.59,0,0,0-1.54.47.79.79,0,0,0-.41.59.26.26,0,0,0,0,.2.64.64,0,0,0,.28.26,5.2,5.2,0,0,0,1.88.62l0,0h0a8.76,8.76,0,0,1,2.39.75,3.91,3.91,0,0,1,1.82,1.52,3.32,3.32,0,0,1,.49,1.7,3.74,3.74,0,0,1-1.62,3,5.87,5.87,0,0,1-3.34,1,7.39,7.39,0,0,1-4.57-1.78A1.39,1.39,0,0,1,219,195.72Z"/><rect id="Frame" class="cls-10" width="263.04" height="199.41"/></svg>