<svg id="Layer_1" data-name="Layer 1" xmlns="http://www.w3.org/2000/svg" viewBox="0 0 545.52 131.61"><defs><style>.cls-1{fill:#ce1e55;}.cls-2{fill:#e2215b;}.cls-3{fill:#079b7f;}.cls-4{fill:#00c9a2;}.cls-5{fill:#f2b700;}.cls-6{fill:#daa727;}.cls-7{fill:#0fa3cf;}.cls-8{fill:#13b3e2;}.cls-9{fill:#16152b;}.cls-10{fill:none;}</style></defs><path class="cls-1" d="M52.07,27.21A27.2,27.2,0,0,1,98.51,8L60,46.45a27.12,27.12,0,0,1-8-19.24"/><path class="cls-2" d="M79.22,27.24A27.21,27.21,0,0,1,40.74,65.72Z"/><path class="cls-3" d="M59.94,112.13A27.2,27.2,0,0,1,40.71,65.69l38.48,38.47a27.18,27.18,0,0,1-19.25,8"/><path class="cls-4" d="M60.21,85.16a27.21,27.21,0,1,1,38.48,38.48Z"/><path class="cls-5" d="M110,85.18a27.2,27.2,0,0,1,46.44-19.24L118,104.42a27.13,27.13,0,0,1-8-19.24"/><path class="cls-6" d="M137.18,85.16a27.2,27.2,0,1,1-38.47,38.47Z"/><path class="cls-7" d="M137.19,19.51A27.21,27.21,0,0,1,156.43,66L117.94,27.48a27.12,27.12,0,0,1,19.25-8"/><path class="cls-8" d="M137,46.45A27.21,27.21,0,0,1,98.51,8Z"/><path class="cls-9" d="M183,82.67a1.57,1.57,0,1,1-3.14,0V65.89a1.54,1.54,0,0,1,.63-1.32,1.6,1.6,0,0,1,2.2.34L192,77.8V65.92a1.56,1.56,0,0,1,1.55-1.55,1.59,1.59,0,0,1,1.59,1.55V82.67a1.6,1.6,0,0,1-1.59,1.59,1.55,1.55,0,0,1-1.18-.58.7.7,0,0,1-.14-.17L183,70.71Z"/><path class="cls-9" d="M208.66,77.05a7.15,7.15,0,0,1,7-7.21,6.9,6.9,0,0,1,6.94,6.69v.15a.8.8,0,0,1,0,.26,1.38,1.38,0,0,1-1.5,1.15H212a3.74,3.74,0,0,0,1,1.9,4.48,4.48,0,0,0,2.77,1.3,4.66,4.66,0,0,0,3-.72,1.64,1.64,0,0,1,2.17-.09,1.33,1.33,0,0,1,0,1.88,7.34,7.34,0,0,1-5.16,1.9A7.16,7.16,0,0,1,208.66,77.05Zm3.14-1.41H220a4.72,4.72,0,0,0-4.26-3.06A4,4,0,0,0,211.8,75.64Z"/><path class="cls-9" d="M240.49,71.43A1.62,1.62,0,0,1,238.87,73h-.72v8a1.59,1.59,0,0,1,1.59,1.61,1.56,1.56,0,0,1-1.59,1.59,3.21,3.21,0,0,1-3.2-3.2V73h-.83a1.59,1.59,0,1,1,0-3.17H235V65.66a1.59,1.59,0,0,1,1.62-1.58,1.56,1.56,0,0,1,1.58,1.58v4.18h.72A1.61,1.61,0,0,1,240.49,71.43Z"/><path class="cls-9" d="M272,72.15l-4.76,11.19s-.06.14-.11.23a0,0,0,0,1,0,0,1.07,1.07,0,0,1-.15.17s-.05,0-.05,0a1.1,1.1,0,0,1-.18.14s0,0,0,.06a.65.65,0,0,1-.26.14s0,0,0,0a.78.78,0,0,0-.23.06h-.06a.89.89,0,0,1-.29,0,.77.77,0,0,1-.26,0h-.06a.39.39,0,0,0-.2-.06l0,0h0A.72.72,0,0,1,265,84v0c-.08,0-.11-.09-.17-.14s-.06,0-.06,0a1.77,1.77,0,0,1-.14-.17,0,0,0,0,1,0,0c-.06-.09-.09-.18-.12-.23l-2.1-5-2.05,5-.14.23v0l-.17.17a0,0,0,0,1,0,0l-.18.17a.81.81,0,0,1-.26.17h-.05a0,0,0,0,0,0,0,.26.26,0,0,0-.17.06h-.06a1.06,1.06,0,0,1-.29,0,.86.86,0,0,1-.29,0h-.09a.35.35,0,0,0-.17-.06s0,0-.06,0a.54.54,0,0,1-.26-.17s0,0,0,0a.8.8,0,0,0-.18-.14l-.06,0a1,1,0,0,0-.11-.17s0,0,0,0a2,2,0,0,0-.14-.23L252.8,72.15a1.49,1.49,0,0,1,.83-2,1.44,1.44,0,0,1,1.91.86l3.4,7.76L261,74a1.53,1.53,0,0,1,1.41-.93,1.48,1.48,0,0,1,1.41.93l2.05,4.81,3.4-7.76a1.44,1.44,0,0,1,1.93-.86A1.51,1.51,0,0,1,272,72.15Z"/><path class="cls-9" d="M286.82,82.15a7.18,7.18,0,0,1-2-5.07,7.46,7.46,0,0,1,2-5,6.74,6.74,0,0,1,5-2.19A6.38,6.38,0,0,1,296.59,72a7.22,7.22,0,0,1,2,5,7,7,0,0,1-2,5.07,6.36,6.36,0,0,1-4.81,2.2A6.71,6.71,0,0,1,286.82,82.15ZM288,77.08a4.7,4.7,0,0,0,1,3.06,3.9,3.9,0,0,0,2.77,1.06,3.77,3.77,0,0,0,2.65-1.06,4.44,4.44,0,0,0,1.12-3.06,4.35,4.35,0,0,0-1.12-3A4.08,4.08,0,0,0,291.78,73,4.2,4.2,0,0,0,289,74.08,4.59,4.59,0,0,0,288,77.08Z"/><path class="cls-9" d="M319.74,71.37a1.54,1.54,0,0,1-1.53,1.53,2.73,2.73,0,0,0-1.73.55,4.25,4.25,0,0,0-1.32,1.38A9.19,9.19,0,0,0,314,77.25v5.48a1.57,1.57,0,0,1-1.58,1.53,1.54,1.54,0,0,1-1.53-1.53V71.37a1.52,1.52,0,0,1,1.53-1.5,1.55,1.55,0,0,1,1.58,1.5v.2a4,4,0,0,1,.61-.57,6.27,6.27,0,0,1,3.63-1.13A1.5,1.5,0,0,1,319.74,71.37Z"/><path class="cls-9" d="M331.45,82.67v-17A1.58,1.58,0,0,1,333,64.08a1.61,1.61,0,0,1,1.62,1.58v10l5.91-5.91a1.6,1.6,0,0,1,2.24,0,1.56,1.56,0,0,1,0,2.25l-4.32,4.32,4.44,5.34a1.59,1.59,0,0,1-.23,2.24,1.54,1.54,0,0,1-2.22-.2l-4.24-5.13-1.58,1.59v2.53A1.61,1.61,0,0,1,333,84.26,1.58,1.58,0,0,1,331.45,82.67Z"/><path class="cls-9" d="M371.52,73.88A10.58,10.58,0,0,1,382.1,63.5a10.8,10.8,0,0,1,6.66,2.25,1.71,1.71,0,0,1,.29,2.31,1.69,1.69,0,0,1-2.31.31,7.16,7.16,0,0,0-4.64-1.58,7.66,7.66,0,0,0-5.19,2.07,7.12,7.12,0,0,0-2.11,5,7,7,0,0,0,2.11,5A7.66,7.66,0,0,0,382.1,81a7.28,7.28,0,0,0,4.64-1.58,1.75,1.75,0,0,1,2.31.31,1.71,1.71,0,0,1-.29,2.31,10.8,10.8,0,0,1-6.66,2.25A10.54,10.54,0,0,1,371.52,73.88Z"/><path class="cls-9" d="M414.44,77.08v5.65a1.53,1.53,0,0,1-1.52,1.53,1.57,1.57,0,0,1-1.5-1.24,6.54,6.54,0,0,1-3.84,1.24,6.69,6.69,0,0,1-4.9-2.11,7.36,7.36,0,0,1-2-5.07,7.25,7.25,0,0,1,2-5.07,6.54,6.54,0,0,1,8.74-.9,1.57,1.57,0,0,1,1.5-1.27,1.55,1.55,0,0,1,1.52,1.56Zm-3.05,0a4.21,4.21,0,0,0-1.13-3,3.55,3.55,0,0,0-2.68-1.18,3.49,3.49,0,0,0-2.68,1.18,4.23,4.23,0,0,0-1.09,3,4.34,4.34,0,0,0,1.09,3,3.65,3.65,0,0,0,2.68,1.12,3.72,3.72,0,0,0,2.68-1.12A4.32,4.32,0,0,0,411.39,77.08Z"/><path class="cls-9" d="M439.76,75.84v6.89a1.52,1.52,0,0,1-1.5,1.53,1.56,1.56,0,0,1-1.53-1.53V75.84a3,3,0,0,0-3-2.91,2.88,2.88,0,0,0-2.88,2.91v6.89a.56.56,0,0,1-.06.29,1.58,1.58,0,0,1-1.53,1.24,1.52,1.52,0,0,1-1.52-1.53V71.37a1.52,1.52,0,0,1,1.52-1.53,1.57,1.57,0,0,1,1.42.9,5.72,5.72,0,0,1,3.05-.9A6,6,0,0,1,439.76,75.84Z"/><path class="cls-9" d="M464.15,72.15l-4.73,11.19a.7.7,0,0,1-.12.2,0,0,0,0,1,0,0c0,.05-.11.14-.17.2a0,0,0,0,1,0,0,1.36,1.36,0,0,1-.17.17,0,0,0,0,0,0,0,.56.56,0,0,1-.2.14h-.06v0a.56.56,0,0,0-.23.06h-.06a1,1,0,0,1-.28,0,.93.93,0,0,1-.26,0h-.06a.71.71,0,0,0-.23-.06v0h-.06a2.36,2.36,0,0,1-.26-.14,0,0,0,0,0,0,0,.91.91,0,0,1-.17-.17s0,0-.06,0a.9.9,0,0,0-.14-.2s0,0,0,0-.09-.12-.12-.2L452,72.15a1.47,1.47,0,0,1,.84-2,1.48,1.48,0,0,1,1.93.83L458,78.87,461.38,71a1.5,1.5,0,1,1,2.77,1.13Z"/><path class="cls-9" d="M488.94,77.08v5.65a1.54,1.54,0,0,1-1.53,1.53,1.58,1.58,0,0,1-1.5-1.24,6.51,6.51,0,0,1-3.83,1.24,6.69,6.69,0,0,1-4.9-2.11,7.36,7.36,0,0,1-2-5.07,7.25,7.25,0,0,1,2-5.07,6.63,6.63,0,0,1,4.9-2.17,6.54,6.54,0,0,1,3.83,1.27,1.57,1.57,0,0,1,1.5-1.27,1.55,1.55,0,0,1,1.53,1.56Zm-3.06,0a4.25,4.25,0,0,0-1.12-3,3.55,3.55,0,0,0-2.68-1.18,3.46,3.46,0,0,0-2.68,1.18,4.23,4.23,0,0,0-1.1,3,4.34,4.34,0,0,0,1.1,3,3.62,3.62,0,0,0,2.68,1.12,3.72,3.72,0,0,0,2.68-1.12A4.36,4.36,0,0,0,485.88,77.08Z"/><path class="cls-9" d="M501.83,80.14A1.5,1.5,0,0,1,504,79.9a5.26,5.26,0,0,0,3.17,1.27,3.92,3.92,0,0,0,2-.54,1.21,1.21,0,0,0,.52-.87.44.44,0,0,0-.09-.29.87.87,0,0,0-.37-.34,6.66,6.66,0,0,0-2.31-.81h0a10.8,10.8,0,0,1-2.51-.75,4.81,4.81,0,0,1-2-1.67,3.49,3.49,0,0,1-.49-1.82,4,4,0,0,1,1.7-3.17,6.22,6.22,0,0,1,3.54-1.07,7.48,7.48,0,0,1,4.33,1.59,1.59,1.59,0,0,1,.46,2.13,1.54,1.54,0,0,1-2.14.41,4.9,4.9,0,0,0-2.65-1.07,2.94,2.94,0,0,0-1.73.52.89.89,0,0,0-.46.66.29.29,0,0,0,.06.23.7.7,0,0,0,.32.29,5.75,5.75,0,0,0,2.1.69l0,0h0a10.09,10.09,0,0,1,2.68.84,4.42,4.42,0,0,1,2,1.7,3.76,3.76,0,0,1,.54,1.9,4.16,4.16,0,0,1-1.81,3.35,6.58,6.58,0,0,1-3.75,1.15,8.38,8.38,0,0,1-5.13-2A1.53,1.53,0,0,1,501.83,80.14Z"/><rect id="Frame" class="cls-10" width="545.52" height="131.61"/></svg>