<svg id="Layer_1" data-name="Layer 1" xmlns="http://www.w3.org/2000/svg" viewBox="0 0 1922 2049.6"><defs><style>.cls-1{opacity:0.31;}.cls-2{fill:#d1395d;}.cls-3{fill:#eab93f;}.cls-4,.cls-5{fill:#57c6a4;}.cls-5{fill-opacity:0;}.cls-6{opacity:0.15;}.cls-7,.cls-8{fill:#fff;}.cls-7,.cls-8,.cls-9{stroke:#fff;}.cls-7{stroke-width:0.5px;}.cls-8,.cls-9{stroke-width:6px;}.cls-9{fill:none;}</style></defs><title>sidebar-bg-cropped</title><g class="cls-1"><path class="cls-2" d="M-1226,103.3C-1097.2,277-606.7,823.7-514,874.5c37,20.2,72.4,37.8,110.6,52.7,112.2,43.6,167.6-91.7,271.4,10.3,133.4,131,205.9-45,303.3-31.6,179.1,24.7,259.8,200.3,349.5,166.1,58.7-22.4-156-494.1-259.9-545.5C-50.4,372.4,225.1,297.1-200.8,210.4-639.9,120.9-1413.6-149.8-1226,103.3Z"/><path class="cls-2" d="M218.3,1014.9c-3.7-8.9-11.3-16-20.1-20.1-12.3-5.8-26.1-6.2-39.6-5.5-13.8.7-27.6,1.5-41.4,2.2-4.4.2-8.9.5-13.3.8-5.3-1-10.6-1.9-15.9-2.9-8.5-1.5-16.8-2.7-25.4-1.3a31.27,31.27,0,0,0-21.1,12.8c-7.1,4.7-14.2,9.4-21.2,14.3-8.6,6-16.5,13.1-20.4,22.9-3.7,9.4-2.8,20.5,3.7,28.5,6.2,7.5,16.3,10.3,25.9,9.5,9.8-.8,18.2-4.6,27.3-7.6,6.1-2,16.5-5.5,21.5.3,4.8,5.6,2.9,15.7,3.1,22.4.4,9.9,2.9,18.8,9.1,26.9a45.42,45.42,0,0,0,74.2-3.7c5.6-9.2,5-20,9.7-29.4,4.1-8,12.3-13.5,19.4-18.8,8.1-6.1,16.2-12.7,21.4-21.4C220.8,1035.7,222.5,1024.9,218.3,1014.9Z"/><path class="cls-3" d="M633.6,588.3c7.7-40.4,14.9-76.3,47-135.8C729.8,361.1,814.4,256.4,851.4,211c86.5-106.4,143-160.7,131-177.4-10.7-14.9-61.2,20.8-94,15.5-47.7-7.6-11.2-93.7,60.8-176.4C1010.6-198,1051-212,1117.1-285.2c67.1-74.2,60-97.9,107.2-189.4,25.5-49.5,110.6-214.6,204.4-276.8,82.2-54.5,160-22.5,192.7,17.5,15.9,19.5,68.1,98.2-124,449.9-164.2,300.8-260,348.6-325.7,531.5-54.3,150.9-18.4,199.8-138.1,317.3-93.4,91.7-241.9,186.3-326.9,210.1C592,807,611.4,705,633.6,588.3Z"/><path class="cls-3" d="M921.4,85.7c1.3-5.5.2-10.6-2.3-13.9A8,8,0,0,0,908.5,70l-.9.6a1.85,1.85,0,0,0-.7.2L848.1,86.5c-17.8,4.8-36,10.7-53.6,12.2-8.5.7-16.8.2-24.6-2.4-7.6-2.5-14.8-6.4-22.5-8.6-15.6-4.5-33.1-.1-47.3,18.2A91.18,91.18,0,0,0,682,167.4c1.8,20.8,11,37,24.5,45,13.9,8.2,30.2,8.9,46.9,4,17.1-5.1,34-15.8,50.3-27.3,20-14.1,39.9-28.9,59.9-43.4,18-13.1,35.6-27,50.1-47.7A22.19,22.19,0,0,0,921.4,85.7ZM735.2,310.2c-.1-11.1-.1-22.3-.4-33.4-.3-9.9-.2-21.7-6.8-29.2-7.1-8.1-18.8-5.9-28.2-5.9-10,0-20.3-.7-30.2,1.7-8.9,2.2-16.8,7.7-23.4,14.6s-11.3,16.6-10.7,26.9c.6,9.4,5.1,18.3,12,23.6a36.27,36.27,0,0,0,11.2,5.4,29.92,29.92,0,0,0,3.2.8,9,9,0,0,1,2.8,6.3,22.37,22.37,0,0,1-1.6,8,49,49,0,0,1-8.6,9.5c-3.5,1.7-7.4,2.5-11.1,4A25.22,25.22,0,0,0,631,353.2a18.59,18.59,0,0,0-6.4,8.2c-4.9,11.8,2.6,23.9,11.7,29.4,8.9,5.3,19.9,5.4,29.5,1.9,10-3.6,18.4-10.9,26.2-18.6,3.1-3.1,6.1-6.4,8.9-9.8,2-1.2,4-2.3,6-3.5,8.1-4.7,17.5-9.2,23.1-17.7C736.5,333.4,735.3,321.4,735.2,310.2Z"/><path class="cls-4" d="M481.8,1082.6c168.1-34.2,173.5,67.6,89.6,133.7-30.1,23.7-71.3,42.1-84.9,62.1-20,29.4,55.7,9,62.5,35.4,8.3,32.6-93.4,117.5-198.1,174.3-62.2,33.7-82.5,34.3-125.9,62.7-67,44-94.6,92.5-75.5,113.4,18.8,20.6,68.5-1.9,101.6,11.7,48.7,20.1,12,97.8-88.4,168.5-82.2,58-158.8,77.2-224.3,133.7-28.2,24.2-28.2,32.9-54.1,72.2-51.3,78-108.7,107.3-102.8,129.1,6.7,24.8,69.5-.4,81.9,20.8,19.3,33-104.2,142.1-201.7,181.5-110.2,44.5-170.9-6.6-212.7-41.7-24.7-20.7-63.7-55.4-49-132.6,7.4-38.8,26.7-78.9,213.8-316.1,211.2-267.8,263.6-314.2,261.7-377.1-1.3-43.2-27-50,11.9-96.2C-31.3,1321.4,286.1,1122.3,481.8,1082.6Z"/><path class="cls-4" d="M606.4,1286.1c-1.8-2.6-5.2-4.4-6.7-7-1-1.8.2-4.4.5-6.3a22.33,22.33,0,0,0-.2-10.9c-2.3-7-9-11.2-16.2-12.8-15.5-3.4-30.5,6.2-29.5,21.8.8,13.4,11.4,20.7,23.1,25.4,2.9,5.9,7.7,11,14.9,12,7.7,1,15.3-3.3,16.9-10.7C610.1,1293.6,608.6,1289.4,606.4,1286.1Z"/><path class="cls-5" d="M417.9,1600.2c-8-4-17.1-6.1-25.7-8.7-9.3-2.8-18.5-5.6-27.8-8.4-18-5.4-36.2-10.2-55-12.5-19-2.3-40.1-2-55.9,9.4-13.3,9.6-19.6,28.7-10.8,42.9a9.37,9.37,0,0,0,6.9,4.6,8.52,8.52,0,0,0,2.3.3,119.48,119.48,0,0,1,30,3.2,30.59,30.59,0,0,0,4.1,1,134.56,134.56,0,0,1,15.8,5.5,23.91,23.91,0,0,1,2.3,2.2c10.7,10.2,16.8,22.2,23.8,34.8,7.2,13.1,17.4,24.5,33.8,26.8,17.5,2.5,34.2-6.8,45.5-18.7,11.1-11.8,23-26.8,26.8-42.5C437.5,1625.3,433,1607.9,417.9,1600.2Zm33.9-67.2c-4.7-10.5-16-18.7-28.1-19.8-9.3-.9-18,1.2-26.3,4.6-.8-.1-1.5-.1-2.3-.2-15.4-1.4-35.2-4.5-45.2,9.9a15.18,15.18,0,0,0-2.8,9,8,8,0,0,0-.3,1.5l.2,2.9c0,.1.1.2.1.3a11,11,0,0,1,.3,1.1,11.8,11.8,0,0,0,1.3,3,14.39,14.39,0,0,0,4.5,5,12.85,12.85,0,0,0,3.5,1.8,11.18,11.18,0,0,0,6.2,2.3c8.1.4,16.2.7,24.3,1.1,4.3,1.8,8.6,3.7,12.9,5.4,13,5.2,27.5,8.3,40.5,1.5C451.9,1556.6,456.8,1544.2,451.8,1533Z"/><g class="cls-6"><ellipse class="cls-7" cx="1073.02" cy="36.99" rx="19" ry="18.4" transform="translate(77.48 439.04) rotate(-23.97)"/><ellipse class="cls-7" cx="123.7" cy="531" rx="15" ry="14.5"/><ellipse class="cls-7" cx="318.4" cy="800.2" rx="17.5" ry="16.9"/><ellipse class="cls-7" cx="308.4" cy="1219.7" rx="28.5" ry="27.6"/><ellipse class="cls-7" cx="341.4" cy="1418.1" rx="15" ry="14.5"/><ellipse class="cls-7" cx="455.6" cy="1219.8" rx="28.5" ry="27.6"/><ellipse class="cls-7" cx="124.2" cy="1342.9" rx="19" ry="18.4"/><ellipse class="cls-7" cx="86.6" cy="1789.4" rx="15" ry="14.5"/><ellipse class="cls-7" cx="28.1" cy="1609" rx="20" ry="19.3"/><ellipse class="cls-7" cx="214.3" cy="725.3" rx="20" ry="19.3"/><ellipse class="cls-7" cx="59.1" cy="835" rx="15" ry="14.5"/><ellipse class="cls-7" cx="885.71" cy="242.6" rx="15" ry="14.5" transform="translate(-22.18 380.68) rotate(-23.97)"/><ellipse class="cls-7" cx="1113.32" cy="213.49" rx="15" ry="14.5" transform="translate(9.27 470.63) rotate(-23.97)"/><ellipse class="cls-7" cx="739.3" cy="156.79" rx="13" ry="12.6" transform="translate(0.05 313.82) rotate(-23.97)"/><ellipse class="cls-7" cx="929.42" cy="577.22" rx="28.5" ry="27.6" transform="translate(-154.33 427.29) rotate(-23.97)"/><ellipse class="cls-7" cx="778.62" cy="586.01" rx="28" ry="27.6" transform="translate(-167.98 354.48) rotate(-23.22)"/><ellipse class="cls-7" cx="140.7" cy="1046.4" rx="15" ry="14.5"/><ellipse class="cls-7" cx="1223.63" cy="35.79" rx="15" ry="14.5" transform="translate(90.96 500.12) rotate(-23.97)"/><path class="cls-8" d="M1113.5,213l-184,364"/><path class="cls-9" d="M1223.5,36,885.6,243M1223.5,36l-110,177m-41-176,41,176m-41-176-333,120m-284,1063-114,198m0,0-217.3-75.1M341.5,1418,28.1,1609m280.4-389,33,198M88.1,1790.9,28.1,1609m112.6-565-16.5,298.9M214.8,725,59.1,835m0,0-82.6-90.5M123.7,531-23,467.4M214.8,725,123.7,531M579.6,876.6,318.3,800.2m261.3,76.4L214.8,725M1251.5-80l-28,116m-338,207L778.3,585M124.2,1342.9-30,1487.1M929.5,577l-44-334M318.4,800.2,140.7,1044M59.1,835l81.6,209"/></g></g></svg>